<?xml version="1.0" standalone="no"?>
<!DOCTYPE svg PUBLIC "-//W3C//DTD SVG 20010904//EN"
 "http://www.w3.org/TR/2001/REC-SVG-20010904/DTD/svg10.dtd">
<svg version="1.0" xmlns="http://www.w3.org/2000/svg"
 width="1024.000000pt" height="1024.000000pt" viewBox="0 0 1024.000000 1024.000000"
 preserveAspectRatio="xMidYMid meet">
<metadata>
Created by potrace 1.11, written by Peter Selinger 2001-2013
</metadata>
<g transform="translate(0.000000,1024.000000) scale(0.100000,-0.100000)"
fill="#000000" stroke="none">
<path d="M5063 9034 c-45 -15 -98 -72 -107 -116 -3 -17 -6 -97 -6 -179 l0
-148 -228 -3 c-224 -3 -229 -4 -264 -28 -52 -35 -72 -75 -73 -141 0 -69 31
-120 91 -149 36 -18 61 -20 257 -20 l217 0 -2 -296 -3 -295 -55 -19 c-227 -77
-435 -282 -575 -565 -60 -121 -100 -242 -110 -332 -13 -107 -5 -302 16 -427 6
-32 9 -60 7 -61 -2 -2 -39 21 -83 51 -264 182 -560 322 -839 398 -68 19 -137
37 -152 39 -16 3 -58 10 -94 16 -101 18 -243 27 -359 25 -609 -14 -1090 -325
-1361 -879 -168 -345 -214 -608 -166 -945 29 -204 162 -503 309 -700 238 -316
477 -526 930 -815 l32 -21 2 -839 c0 -462 1 -845 2 -851 2 -20 208 -142 381
-226 58 -28 113 -55 123 -59 157 -80 693 -247 902 -282 17 -3 53 -10 80 -15
28 -6 70 -13 95 -16 25 -4 65 -11 90 -16 25 -5 68 -11 95 -14 28 -3 61 -8 75
-10 23 -4 124 -14 210 -22 150 -12 308 -18 500 -18 204 0 482 10 530 19 10 2
50 6 87 9 56 5 223 27 308 40 56 9 112 19 130 22 11 3 36 7 55 10 19 3 38 8
41 10 4 2 24 6 45 10 31 5 142 32 324 79 349 90 923 355 1014 468 l31 39 2
756 c0 417 2 766 2 777 1 13 19 30 54 49 131 73 436 283 561 388 22 18 55 46
75 63 188 157 397 387 527 581 91 136 195 356 230 484 39 144 47 204 48 355 2
244 -25 377 -117 590 -97 227 -361 522 -613 688 -210 138 -426 220 -709 271
-134 25 -445 25 -572 2 -10 -2 -38 -7 -63 -11 -300 -47 -662 -193 -945 -380
-16 -11 -27 -15 -23 -10 20 34 26 286 8 404 -28 198 -164 458 -329 634 -107
113 -249 208 -361 241 l-45 13 -3 297 -2 296 218 0 c209 0 221 1 262 23 99 52
119 197 38 268 -52 45 -76 49 -303 49 l-215 0 0 155 c0 161 -8 205 -48 248
-41 46 -115 63 -179 41z"/>
</g>
</svg>
